<svg width="204" height="26" viewBox="0 0 204 26" fill="none" xmlns="http://www.w3.org/2000/svg">
    <path fill-rule="evenodd" clip-rule="evenodd" d="M19.9471 3.30199L19.3245 3.33313L18.9509 3.36426L18.6084 3.39539L18.2971 3.42653L17.5499 3.51993L17.332 3.55106L16.5848 3.67559L15.4951 3.89352L14.7479 4.08032L14.5922 4.11146L14.4988 4.14259L14.3743 4.17372L14.2809 4.20486L14.1564 4.23599L14.063 4.26712L13.9384 4.29826L13.845 4.32939L13.7205 4.36052L13.6271 4.39166L13.5026 4.42279L12.5686 4.73412L12.5063 4.76526L12.3195 4.82752L12.2572 4.85865L11.977 4.95205L11.9148 4.98319L11.728 5.04545L11.6034 5.10772L11.51 5.13885L11.3855 5.20112L11.2921 5.23225L11.1053 5.32565L11.0119 5.35679L10.4515 5.63699L10.4204 5.66812L9.98451 5.88605L9.95337 5.91719L9.89111 5.94832L9.85997 5.97945L9.79771 6.01059L9.76657 6.04172L9.64204 6.10399L9.61091 6.13512L9.54864 6.16625L9.51751 6.19738L9.45524 6.22852L9.42411 6.25965L9.29957 6.32192L9.26844 6.35305L9.20617 6.38418L9.17504 6.41532L9.11278 6.44645L9.05051 6.50872L8.98824 6.53985L8.92598 6.60212L8.86371 6.63325L8.80144 6.69552L8.73918 6.72665L8.67691 6.78892L8.61464 6.82005L8.55238 6.88232L8.49011 6.91345L8.42784 6.97572L8.36558 7.00685L8.27218 7.10025L8.20991 7.13138L7.99198 7.34932L7.92971 7.38045L7.71178 7.59838L7.64951 7.62951L7.27591 8.00311L7.24478 8.06538L6.84005 8.47011L6.80892 8.53238L6.71552 8.62578L6.68438 8.68804L6.62212 8.75031L6.59098 8.81258L6.49758 8.90598L6.46645 8.96824L6.40418 9.03051L6.37305 9.09278L6.31078 9.15504L6.27965 9.21731L6.21738 9.27958L6.18625 9.34184L6.15512 9.37298L6.12398 9.43524L6.09285 9.46638L6.06172 9.52864L6.03058 9.55978L5.96832 9.68431L5.93718 9.71544L5.81265 9.96451L5.78152 9.99564L5.59472 10.3692L5.56358 10.4626L5.43905 10.7117L5.22112 11.3655L5.18999 11.49L5.15885 11.6457L5.12772 11.7702L5.09659 11.9259L5.06545 12.1127L5.03432 12.4552V13.5448H5.06545V13.7939H5.09659V14.043H5.12772V14.1986H5.15885V14.3232H5.18999V14.4477H5.22112V14.5722H5.25225V14.6968H5.28339V14.8213H5.31452V14.8836H5.34565V14.977H5.37679V15.0704H5.40792V15.1326H5.43905V15.226H5.47019V15.3194H5.50132V15.3817H5.53245V15.4751H5.56358V15.5374H5.59472V15.5996H5.62585V15.6619H5.65698V15.7242H5.68812V15.7864H5.71925V15.8798H5.75038V15.9421H5.78152V16.0044H5.81265V16.0666H5.84378V16.1289H5.87492V16.1912H5.90605L5.93718 16.2223V16.2846H5.96832L5.99945 16.3157V16.378H6.03058V16.4402H6.06172L6.09285 16.4714V16.5336H6.12398V16.5959H6.15512L6.18625 16.627V16.6893H6.21738L6.24852 16.7204V16.7827H6.27965V16.845H6.31078L6.40418 16.9384V17.0006H6.43532L6.49758 17.0629V17.1252H6.52872L6.59098 17.1874V17.2497H6.62212L6.71552 17.3431V17.4054H6.74665L6.84005 17.4988V17.561H6.87118L7.18251 17.8724V17.9346H7.21365L7.61838 18.3394L7.68065 18.3705L8.02311 18.713L8.08538 18.7441L8.17878 18.8375L8.24104 18.8686L8.33444 18.962L8.39671 18.9932L8.49011 19.0866L8.55238 19.1177L8.64578 19.2111L8.70804 19.2422L8.77031 19.3045L8.83258 19.3356L8.89484 19.3979L8.95711 19.429L8.98824 19.4601L9.05051 19.4913L9.08164 19.5224L9.14391 19.5536L9.17504 19.5847L9.23731 19.6158L9.29957 19.6781L9.36184 19.7092L9.39297 19.7404L9.45524 19.7715L9.48637 19.8026L9.61091 19.8649L9.64204 19.896L9.76657 19.9583L9.79771 19.9894L9.85997 20.0205L9.89111 20.0517L10.0156 20.1139L10.0468 20.1451L10.1713 20.2073L10.2024 20.2385L11.261 20.7677L11.3544 20.7989L11.4789 20.8611L11.5723 20.8923L11.6968 20.9545L11.7902 20.9857L11.9148 21.0479L12.0082 21.0791L12.0704 21.1102L12.1638 21.1413L12.2261 21.1725L12.4129 21.2347L12.4752 21.2659L12.662 21.3281L12.7242 21.3593L13.5648 21.6395L13.6894 21.6706L13.9696 21.764L14.2186 21.8263L14.312 21.8574L14.6856 21.9508L14.779 21.9819L14.9347 22.0131L15.0592 22.0442L15.2149 22.0753L15.3394 22.1065L15.4951 22.1376L15.6196 22.1687L16.0866 22.2621L16.2734 22.2933L16.7404 22.3867L16.9272 22.4178L17.1452 22.4489L17.3942 22.4801L17.6122 22.5112L17.8612 22.5423L18.0792 22.5735L18.8886 22.6357L19.3556 22.6669L21.6595 22.698V22.6669L22.251 22.6357L22.7803 22.6046L23.0605 22.5735L23.9322 22.4489L24.1813 22.3867L24.3369 22.3555L24.4615 22.3244L24.6171 22.2933L24.7417 22.2621L24.8973 22.231L24.9907 22.1999L25.1153 22.1687L25.3955 22.0753L25.52 22.0442L25.8002 21.9508L25.9247 21.9197L25.987 21.8885L26.0804 21.8574L26.1427 21.8263L26.2361 21.7951L26.3606 21.7329L26.454 21.7017L26.7031 21.5772L26.7342 21.5461L26.921 21.4527L26.9521 21.4215L27.0767 21.3593L27.1078 21.3281L27.1701 21.297L27.2635 21.2036L27.3257 21.1725L27.388 21.1102L27.4503 21.0791L27.5125 21.0168L27.5748 20.9857L28.1041 20.4564L28.1352 20.3941L28.2286 20.3007L28.2597 20.2385L28.322 20.1762L28.3843 20.0517L28.4154 20.0205L28.4465 19.9583L28.4777 19.9271L28.6956 19.4913L28.7267 19.3979L28.7579 19.3356L28.789 19.2422L28.8201 19.1177L28.8513 19.0243L28.8824 18.8998L28.9135 18.713L28.9447 18.4328L28.9758 17.8724H28.9447V17.6544H28.9135V17.4988H28.8824V17.3742H28.8513V17.312H28.8201V17.2186H28.789V17.1252H28.7579V17.0318L28.7267 17.0006H28.6956V16.9384H28.6645V16.8761H28.6333V16.8138H28.6022V16.7516L28.5711 16.7204H28.5399V16.6582L28.4777 16.5959H28.4465V16.5336L28.3843 16.4714H28.3531V16.4091L28.0107 16.0666L27.9484 16.0355L27.8239 15.911L27.7616 15.8798L27.7305 15.8487L27.6682 15.8176L27.6371 15.7864L27.5748 15.7553L27.5437 15.7242L27.4814 15.693L27.4503 15.6619L26.9521 15.4128L26.6719 15.3194L26.6097 15.2883L26.4229 15.226L26.1738 15.1638L26.0804 15.1326L25.7068 15.0392L25.52 15.0081L25.3643 14.977L25.1775 14.9458L24.9285 14.9147L24.6483 14.8836L14.0318 14.8524L13.7828 14.8213L13.6582 14.7902L13.596 14.759L13.5026 14.7279L13.4403 14.6968L13.4092 14.6656L13.3469 14.6345L13.1601 14.4477H13.0978V14.3854L12.911 14.1986H12.8799V14.1364L12.8488 14.1052H12.8176V14.043L12.7865 14.0118H12.7554V13.9496L12.7242 13.9184H12.6931V13.8562H12.662V13.7939L12.6308 13.7628H12.5997V13.7005H12.5686V13.6382H12.5374V13.576H12.5063V13.5137H12.4752V13.4514H12.444V13.3892H12.4129V13.3269H12.3818V13.2646H12.3506V13.2024H12.3195V13.1401H12.2884V13.0778H12.2572V13.0156H12.2261V12.9533H12.195V12.891L12.1638 12.8599H12.1327V12.7976H12.1016V12.7354H12.0704V12.6731H12.0393V12.6108H12.0082V12.5486H11.977V12.4863H11.9459V12.424H11.9148V12.3618H11.8836V12.2995H11.8525V12.2372H11.8214V12.175H11.7902V12.1127H11.7591V12.0504H11.728V11.9882H11.6968V11.9259H11.6657V11.8636H11.6346V11.8014H11.6034V11.7391H11.5723V11.6768L11.5412 11.6457H11.51V11.5834H11.4789V11.5212H11.4478V11.4589H11.4166V11.3966H11.3855V11.3344H11.3544V11.2721H11.3232V11.2098H11.2921V11.1476H11.261V11.0853H11.2298V11.023H11.1987V10.9608H11.1676V10.8985H11.1364V10.8362H11.1053V10.774H11.0742V10.7117H11.043V10.6494H11.0119V10.5872H10.9808V10.5249L10.9496 10.4938H10.9185V10.4315H10.8874V10.3692H10.8562V10.307H10.8251V10.2447H10.794V10.1824H10.7628V9.99564H22.4689L34.8288 10.0268L35.6072 10.0579V9.96451L35.576 9.93338H35.5449V9.87111H35.5138V9.80884L35.4826 9.77771H35.4515V9.71544H35.4204V9.65318L35.3892 9.62204H35.3581V9.55978H35.327V9.49751L35.2958 9.46638H35.2647V9.40411H35.2336V9.34184L35.2024 9.31071H35.1713V9.24844H35.1402V9.18618L35.0779 9.12391H35.0468V9.06164L35.0156 9.03051H34.9845V8.96824L34.9534 8.93711H34.9222V8.87484L34.8288 8.78144H34.7977V8.71918L34.7043 8.62578H34.6732V8.56351L34.4552 8.34558H34.4241V8.28331L34.175 8.03425H34.1439V7.97198L34.0505 7.87858L33.9882 7.84745L33.5524 7.41158L33.4901 7.38045L33.3656 7.25592L33.3033 7.22478L33.241 7.16252L33.1788 7.13138L33.0854 7.03798L33.0231 7.00685L32.9608 6.94458L32.8986 6.91345L32.8052 6.82005L32.7429 6.78892L32.7118 6.75778L32.6495 6.72665L32.6184 6.69552L32.4938 6.63325L32.4627 6.60212L32.4004 6.57098L32.3693 6.53985L32.307 6.50872L32.2759 6.47758L32.2136 6.44645L32.1825 6.41532L32.1202 6.38418L32.0891 6.35305L31.9646 6.29078L31.9334 6.25965L31.7466 6.16625L31.7155 6.13512L31.591 6.07285L31.5599 6.04172L31.4353 5.97945L31.4042 5.94832L31.2174 5.85492L31.1863 5.82379L31.0617 5.76152L31.0306 5.73039L29.9098 5.16999L29.8164 5.13885L29.5673 5.01432L29.4739 4.98319L29.4117 4.95205L29.3183 4.92092L29.256 4.88979L29.1626 4.85865L29.1003 4.82752L29.0069 4.79639L28.9447 4.76526L28.8513 4.73412L28.789 4.70299L28.6956 4.67186L28.6333 4.64072L28.5399 4.60959L28.4777 4.57846L28.3843 4.54732L28.322 4.51619L28.1975 4.48506L27.8239 4.36052L27.6993 4.32939L27.2323 4.17372L27.1078 4.14259L27.0144 4.11146L26.7653 4.04919L26.6719 4.01806L26.0493 3.86239L25.5823 3.76899L25.4577 3.73786L25.1464 3.67559L24.2124 3.51993L23.2161 3.39539L22.8114 3.36426L22.4378 3.33313L21.8151 3.30199H19.9471ZM19.916 0.5L19.1999 0.531133L18.4528 0.562267L18.1103 0.5934L17.8301 0.624533L17.5188 0.655666L17.2386 0.6868L16.9272 0.717933L16.647 0.749066L16.398 0.780199L16.18 0.811333L15.9932 0.842466L15.7753 0.873599L15.4017 0.935865L15.0904 0.998132L14.9036 1.02927L14.4366 1.12267L14.312 1.1538L14.1564 1.18493L14.0318 1.21606L13.8762 1.2472L13.7516 1.27833L13.596 1.30946L13.4714 1.3406L13.378 1.37173L12.6308 1.55853L12.5374 1.58966L12.4129 1.6208L12.3195 1.65193L12.195 1.68306L12.1016 1.7142L11.977 1.74533L11.8836 1.77646L11.7591 1.8076L10.8251 2.11893L10.7628 2.15006L10.4826 2.24346L10.4204 2.2746L10.2336 2.33686L10.1713 2.368L10.0779 2.39913L10.0156 2.43026L9.92224 2.46139L9.79771 2.52366L9.70431 2.55479L9.64204 2.58593L9.54864 2.61706L9.42411 2.67933L9.33071 2.71046L9.14391 2.80386L9.05051 2.83499L8.73918 2.99066L8.64578 3.02179L8.02311 3.33313L7.99198 3.36426L7.55611 3.58219L7.52498 3.61333L7.33818 3.70672L7.30705 3.73786L7.12025 3.83126L7.08911 3.86239L6.90232 3.95579L6.87118 3.98692L6.74665 4.04919L6.71552 4.08032L6.65325 4.11146L6.62212 4.14259L6.55985 4.17372L6.52872 4.20486L6.40418 4.26712L6.37305 4.29826L6.31078 4.32939L6.27965 4.36052L6.15512 4.42279L6.12398 4.45392L6.06172 4.48506L5.99945 4.54732L5.93718 4.57846L5.90605 4.60959L5.84378 4.64072L5.78152 4.70299L5.71925 4.73412L5.68812 4.76526L5.62585 4.79639L5.56358 4.85865L5.50132 4.88979L5.47019 4.92092L5.40792 4.95205L5.34565 5.01432L5.28339 5.04545L5.25225 5.07659L5.18999 5.10772L5.09659 5.20112L5.03432 5.23225L4.94092 5.32565L4.87865 5.35679L4.75412 5.48132L4.69185 5.51245L4.59845 5.60585L4.53619 5.63699L4.44279 5.73039L4.38052 5.76152L4.06919 6.07285L4.00692 6.10399L3.25972 6.85118L3.22859 6.91345L2.97953 7.16252L2.94839 7.22478L2.85499 7.31818L2.82386 7.38045L2.73046 7.47385L2.69933 7.53612L2.57479 7.66065L2.54366 7.72291L2.48139 7.78518L2.45026 7.84745L2.41913 7.87858L2.38799 7.94085L2.35686 7.97198L2.32573 8.03425L2.29459 8.06538L2.26346 8.12765L2.20119 8.18991L2.17006 8.25218L2.13893 8.28331L2.10779 8.34558L2.07666 8.37671L2.04553 8.43898L2.01439 8.47011L1.92099 8.65691L1.88986 8.68804L1.79646 8.87484L1.76533 8.90598L1.67193 9.09278L1.6408 9.12391L1.5474 9.31071L1.51626 9.40411L1.32946 9.77771L1.29833 9.87111L1.23606 9.99564L1.14266 10.2758L1.11153 10.3381L1.04926 10.5249L1.01813 10.5872L0.986997 10.6806L0.924731 10.9296L0.893597 11.023L0.769064 11.5212L0.737931 11.7391L0.706798 11.9259L0.675665 12.1438L0.644531 12.4863V13.4826H0.675665V13.7939H0.706798V14.043H0.737931V14.2609H0.769064V14.4166H0.800198V14.5722H0.831331V14.759H0.862464V14.8836H0.893597V14.977H0.924731V15.1015H0.955864V15.226H0.986997V15.3506H1.01813V15.444H1.04926V15.5374H1.0804V15.6308H1.11153V15.7242H1.14266V15.8176H1.1738V15.911H1.20493V15.9732H1.23606V16.0666H1.2672V16.1289H1.29833V16.2223H1.32946V16.2846H1.3606V16.378H1.39173V16.4402H1.42286V16.5025H1.454V16.5648H1.48513V16.627H1.51626V16.6893H1.5474V16.7516H1.57853V16.845H1.60966L1.6408 16.8761V16.9384H1.67193V17.0006H1.70306V17.0629H1.73419V17.1252H1.76533L1.79646 17.1563V17.2186H1.82759V17.2808H1.85873V17.3431H1.88986L1.92099 17.3742V17.4365H1.95213V17.4988H1.98326L2.01439 17.5299V17.5922H2.04553L2.07666 17.6233V17.6856H2.10779L2.13893 17.7167V17.779H2.17006L2.20119 17.8101V17.8724H2.23233L2.26346 17.9035V17.9658H2.29459L2.32573 17.9969V18.0592H2.35686L2.41913 18.1214V18.1837H2.45026L2.48139 18.2148V18.2771H2.51253L2.57479 18.3394V18.4016H2.60593L2.66819 18.4639V18.5262H2.69933L2.76159 18.5884V18.6507H2.79273L2.91726 18.7752V18.8375H2.94839L3.07292 18.962V19.0243H3.10406L3.22859 19.1488V19.2111H3.25972L3.69559 19.6469V19.7092H3.72672L3.78899 19.7404L4.25599 20.2073L4.31825 20.2385L4.44279 20.363L4.50505 20.3941L4.62959 20.5187L4.69185 20.5498L4.84752 20.7055L4.90979 20.7366L4.94092 20.7677L5.00319 20.7989L5.06545 20.8611L5.12772 20.8923L5.18999 20.9545L5.25225 20.9857L5.31452 21.0479L5.37679 21.0791L5.40792 21.1102L5.47019 21.1413L5.53245 21.2036L5.65698 21.2659L5.68812 21.297L5.75038 21.3281L5.78152 21.3593L5.84378 21.3904L5.87492 21.4215L5.93718 21.4527L5.96832 21.4838L6.03058 21.5149L6.06172 21.5461L6.18625 21.6083L6.21738 21.6395L6.34192 21.7017L6.37305 21.7329L6.49758 21.7951L6.52872 21.8263L6.65325 21.8885L6.68438 21.9197L6.80892 21.9819L6.84005 22.0131L6.96458 22.0753L6.99571 22.1065L7.30705 22.2621L7.33818 22.2933L7.71178 22.4801L7.74291 22.5112L8.92598 23.1027L9.01938 23.1339L9.14391 23.1961L9.23731 23.2273L9.42411 23.3207L9.51751 23.3518L9.70431 23.4452L9.79771 23.4763L9.92224 23.5386L10.109 23.6009L10.1713 23.632L10.2647 23.6631L10.327 23.6943L10.4204 23.7254L10.4826 23.7565L10.576 23.7877L10.6383 23.8188L10.8251 23.8811L10.8874 23.9122L11.5412 24.1301L11.6034 24.1613L11.7902 24.2235L11.9148 24.2547L12.1016 24.3169L12.2261 24.3481L12.4129 24.4103L12.5374 24.4415L12.6308 24.4726L12.7554 24.5037L12.8488 24.5349L13.845 24.7839L14.312 24.8773L14.4988 24.9085L15.2772 25.0641L15.6508 25.1264L15.8998 25.1575L16.1178 25.1887L16.3668 25.2198L16.5848 25.2509L16.8338 25.2821L17.0518 25.3132L17.3942 25.3443L17.799 25.3755L18.1726 25.4066L18.5773 25.4377L19.2622 25.4689L21.9085 25.5V25.4689L22.5312 25.4377L22.9982 25.4066L23.4029 25.3755L24.0879 25.3132L24.3992 25.2821L24.6794 25.2509L24.8973 25.2198L25.6445 25.1264L26.9521 24.9085L27.1078 24.8773L27.2323 24.8462L27.5437 24.7839L27.6682 24.7528L27.8239 24.7217L27.9484 24.6905L28.1041 24.6594L28.4777 24.566L28.5711 24.5349L28.6956 24.5037L28.789 24.4726L29.0381 24.4103L29.1315 24.3792L29.256 24.3481L29.3494 24.3169L29.4739 24.2858L30.2211 24.0367L30.2834 24.0056L30.8438 23.8188L30.9061 23.7877L30.9995 23.7565L31.0617 23.7254L31.1551 23.6943L31.2174 23.6631L31.3108 23.632L31.3731 23.6009L31.5599 23.5386L31.6221 23.5075L31.7155 23.4763L31.7778 23.4452L31.8712 23.4141L31.9334 23.3829L32.0268 23.3518L32.2759 23.2273L32.3693 23.1961L32.5561 23.1027L32.6495 23.0716L32.8363 22.9782L32.9297 22.9471L33.7392 22.5423L33.7703 22.5112L34.2684 22.2621L34.2996 22.231L34.4241 22.1687L34.4552 22.1376L34.5798 22.0753L34.6109 22.0442L34.7354 21.9819L34.7666 21.9508L34.9534 21.8574L34.9845 21.8263L35.109 21.764L35.1402 21.7329L35.2024 21.7017L35.2336 21.6706L35.2958 21.6395L35.327 21.6083L35.3892 21.5772L35.4204 21.5461L35.4826 21.5149L35.5138 21.4838L35.576 21.4527L35.6072 21.4215L35.6694 21.3904L35.7317 21.3281L35.794 21.297L35.8251 21.2659L35.8874 21.2347L35.9185 21.2036L35.9808 21.1725L36.0119 21.1413L36.0742 21.1102L36.1053 21.0791L36.1676 21.0479L36.261 20.9545L36.3232 20.9234L36.4166 20.83L36.4789 20.7989L36.5723 20.7055L36.6346 20.6743L36.728 20.5809L36.7902 20.5498L36.8836 20.4564L36.9459 20.4253L37.0393 20.3319L37.1016 20.3007L37.4752 19.9271L37.5374 19.896L38.3158 19.1177L38.3469 19.0554L38.5026 18.8998L38.5337 18.8375L38.6894 18.6818L38.7205 18.6196L38.7828 18.5573L38.8139 18.495L38.9073 18.4016L38.9384 18.3394L39.0007 18.2771L39.0318 18.2148L39.0941 18.1526L39.1252 18.0903L39.1564 18.0592L39.1875 17.9969L39.2186 17.9658L39.2498 17.9035L39.2809 17.8724L39.312 17.8101L39.3432 17.779L39.3743 17.7167L39.4054 17.6856L39.4677 17.561L39.4988 17.5299L39.5611 17.4054L39.5922 17.3742L39.6234 17.312L39.6545 17.2808L39.7168 17.1563L39.7479 17.1252L40.1526 16.3157L40.1838 16.2223L40.2149 16.16L40.246 16.0666L40.2772 16.0044L40.3083 15.911L40.3394 15.8487L40.4017 15.6619L40.4328 15.5996L40.464 15.5062L40.4951 15.3817L40.5262 15.2883L40.5574 15.1638L40.5885 15.0704L40.6508 14.8213L40.7442 14.3543L40.7753 14.1364L40.8064 13.7939L40.8376 12.4552H40.8064V12.1127H40.7753V11.8948H40.7442V11.6768H40.713V11.49H40.6819V11.3655H40.6508V11.2098H40.6196V11.0853H40.5885V10.9296H40.5574V10.8362H40.5262V10.7428H40.4951V10.6494H40.464V10.5249H40.4328V10.4315H40.4017V10.3381H40.3706V10.2447H40.3394V10.1824H40.3083V10.089H40.2772V10.0268H40.246V9.93338H40.2149V9.87111H40.1838V9.77771H40.1526V9.71544H40.1215V9.62204H40.0904V9.55978H40.0592V9.49751H40.0281V9.43524H39.997V9.37298H39.9658V9.31071H39.9347V9.24844H39.9036V9.18618H39.8724V9.12391H39.8413V9.06164L39.8102 9.03051H39.779V8.96824H39.7479V8.90598H39.7168V8.84371L39.6856 8.81258H39.6545V8.75031H39.6234V8.68804L39.5922 8.65691H39.5611V8.59465H39.53V8.53238L39.4988 8.50125H39.4677V8.43898L39.4366 8.40785H39.4054V8.34558L39.3432 8.28331H39.312V8.22105L39.2809 8.18991H39.2498V8.12765L39.1875 8.06538H39.1564V8.00311L39.0941 7.94085H39.063V7.87858L39.0318 7.84745H39.0007V7.78518L38.9384 7.72291H38.9073V7.66065L38.8139 7.56725H38.7828V7.50498L38.6582 7.38045H38.6271V7.31818L38.5026 7.19365H38.4714V7.13138L38.3469 7.00685H38.3158V6.94458L37.9733 6.60212H37.9422V6.53985L37.444 6.04172L37.3818 6.01059L37.0393 5.66812L36.977 5.63699L36.8525 5.51245L36.7902 5.48132L36.6657 5.35679L36.6034 5.32565L36.4789 5.20112L36.4166 5.16999L36.3544 5.10772L36.2921 5.07659L36.2298 5.01432L36.1676 4.98319L36.1053 4.92092L36.043 4.88979L36.0119 4.85865L35.9496 4.82752L35.8874 4.76526L35.8251 4.73412L35.7628 4.67186L35.7006 4.64072L35.6694 4.60959L35.6072 4.57846L35.576 4.54732L35.5138 4.51619L35.4826 4.48506L35.3581 4.42279L35.327 4.39166L35.2647 4.36052L35.2336 4.32939L35.1713 4.29826L35.1402 4.26712L35.0156 4.20486L34.9845 4.17372L34.9222 4.14259L34.8911 4.11146L34.642 3.98692L34.6109 3.95579L34.3618 3.83126L34.3307 3.80012L33.8948 3.58219L33.8637 3.55106L32.7429 2.99066L32.6495 2.95953L32.2759 2.77273L32.1825 2.74159L32.058 2.67933L31.9646 2.64819L31.84 2.58593L31.7466 2.55479L31.6844 2.52366L31.591 2.49253L31.4665 2.43026L31.3731 2.39913L31.3108 2.368L31.2174 2.33686L31.1551 2.30573L30.9683 2.24346L30.9061 2.21233L30.6259 2.11893L30.5636 2.0878L30.2834 1.9944L30.2211 1.96326L30.1277 1.93213L30.0032 1.901L29.5362 1.74533L29.4117 1.7142L29.1315 1.6208L28.8824 1.55853L28.789 1.5274L28.5399 1.46513L28.4465 1.434L27.9484 1.30946L27.7927 1.27833L27.6682 1.2472L27.5125 1.21606L27.388 1.18493L27.2323 1.1538L27.1078 1.12267L26.921 1.09153L26.7653 1.0604L26.3917 0.998132L26.2361 0.966999L25.8625 0.904732L25.7068 0.873599L25.1464 0.780199L24.8973 0.749066L24.6794 0.717933L24.119 0.655666L23.7765 0.624533L23.4652 0.5934L23.0916 0.562267L22.5935 0.531133L21.6283 0.5H19.916Z" fill="black"/>
    <path d="M45.4479 12.9118C45.4479 10.1357 46.7269 6.98607 54.3312 6.98607H63.4611V9.44819H54.6737C51.3398 9.44819 50.1231 10.665 50.0945 12.8806C50.0945 15.1248 51.3398 16.3416 54.6737 16.3416H59.284V14.2531H53.7708V11.791H63.4611V18.8401H54.3312C46.7269 18.8401 45.4479 15.6904 45.4479 12.9144V12.9118Z" fill="black"/>
    <path d="M74.9933 10.198L72.4067 13.9729H76.7679L78.3895 16.3754H70.754L69.0391 18.8686H64.3976L72.5935 6.9861H77.4217L85.6175 18.8686H80.7893L74.9933 10.198Z" fill="black"/>
    <path d="M84.7458 12.9118C84.7458 10.1046 86.0223 6.9861 93.5954 6.9861H101.916V9.47936H93.9379C90.6041 9.47936 89.3873 10.665 89.3873 12.9118C89.3561 15.1586 90.6041 16.3728 93.9379 16.3728H101.916V18.8349H93.5954C86.0223 18.8349 84.7458 15.7164 84.7458 12.9092V12.9118Z" fill="black"/>
    <path d="M120.741 6.9861H125.725V18.8686H122.204V10.3537L118.746 18.8686H115.347L111.36 10.3537V18.8686H107.836V6.9861H112.981L117.062 15.4699L120.741 6.9861Z" fill="black"/>
    <path fill-rule="evenodd" clip-rule="evenodd" d="M146.792 13.0363C146.792 15.9032 145.609 19.1203 138.596 19.1203H135.823C128.781 19.1203 127.627 15.9058 127.627 13.0363C127.627 10.1669 128.781 6.98609 135.823 6.98609H138.596C145.609 6.98609 146.792 10.1669 146.792 13.0363ZM138.285 16.9332C141.369 16.9332 142.49 15.3428 142.49 13.0675C142.49 10.7921 141.369 9.13688 138.285 9.13688H136.134C133.049 9.13688 131.928 10.7584 131.928 13.0363C131.897 15.3116 133.052 16.9332 136.134 16.9332H138.285Z" fill="black"/>
    <path fill-rule="evenodd" clip-rule="evenodd" d="M183.908 13.0364C183.908 15.9032 182.722 19.1177 175.681 19.1177H172.939C165.928 19.1177 164.712 15.9058 164.712 13.0364C164.712 10.1669 165.928 6.98616 172.939 6.98616H175.681C182.722 6.98616 183.908 10.1669 183.908 13.0364ZM175.37 16.9332C178.454 16.9332 179.575 15.3428 179.575 13.0364C179.575 10.7299 178.452 9.13694 175.37 9.13694H173.219C170.131 9.13694 169.011 10.7585 169.011 13.0364C169.011 15.3143 170.134 16.9332 173.219 16.9332H175.37Z" fill="black"/>
    <path fill-rule="evenodd" clip-rule="evenodd" d="M189.735 12.0148H192.913C194.068 12.0459 195.22 12.0148 196.374 11.8591C196.779 11.7968 197.121 11.6386 197.435 11.3584C197.56 11.265 197.653 11.1093 197.747 10.9536C197.809 10.8291 197.84 10.6397 197.84 10.484C197.84 10.2972 197.778 10.1104 197.684 9.92365C197.591 9.76798 197.466 9.60972 197.308 9.51632C196.872 9.23612 196.405 9.08045 195.876 9.04932C195.565 9.01819 194.628 9.01819 193.1 9.01819H189.766L189.735 12.0122V12.0148ZM185.592 18.8745V6.99193H194.317C195.783 6.9608 197.277 7.0542 198.74 7.3344C199.583 7.49006 200.299 7.86626 200.953 8.45779C201.202 8.67832 201.42 8.95852 201.547 9.30098C201.703 9.61231 201.765 9.95737 201.765 10.2998C201.765 10.5178 201.734 10.7383 201.672 10.9562C201.641 11.1742 201.547 11.3921 201.42 11.5789C201.327 11.7683 201.202 11.9551 201.047 12.1108C200.891 12.2664 200.704 12.391 200.517 12.5155C199.677 13.0785 198.429 13.4521 196.748 13.6077C197.184 13.6389 197.622 13.7634 198.027 13.9528C198.431 14.1396 198.805 14.3575 199.148 14.6377L203.356 18.8796H198.525L194.786 15.1696C194.164 14.7311 193.51 14.3887 192.76 14.1707C192.044 13.9528 191.294 13.8594 190.516 13.8905H189.738V18.8796H185.594L185.592 18.8745Z" fill="black"/>
    <path d="M147.508 6.9861H163.993V9.38596H157.854V18.8686H153.649V9.38596H147.508V6.9861Z" fill="black"/>
</svg>
